<?xml version="1.0" standalone="no"?>
<!DOCTYPE svg PUBLIC "-//W3C//DTD SVG 20010904//EN"
 "http://www.w3.org/TR/2001/REC-SVG-20010904/DTD/svg10.dtd">
<svg version="1.0" xmlns="http://www.w3.org/2000/svg"
 width="700.000000pt" height="700.000000pt" viewBox="0 0 700.000000 700.000000"
 preserveAspectRatio="xMidYMid meet">
<g transform="translate(0.000000,700.000000) scale(0.100000,-0.100000)"
fill="#000000" stroke="none">
<path d="M3070 6981 c-668 -91 -1272 -345 -1775 -747 -142 -114 -417 -389
-529 -529 -160 -202 -331 -474 -427 -681 -244 -528 -354 -1090 -328 -1680 38
-863 389 -1689 972 -2291 532 -549 1222 -902 2007 -1025 131 -20 180 -23 500
-23 291 0 376 3 470 18 687 106 1242 342 1745 743 221 177 509 486 678 730
524 754 726 1740 546 2674 -130 680 -452 1303 -923 1788 -524 539 -1217 892
-1991 1013 -201 31 -744 37 -945 10z m1780 -1904 c78 -12 133 -26 170 -45 96
-47 99 -104 23 -369 l-38 -133 -40 0 c-22 0 -103 5 -180 10 -284 19 -626 30
-1280 40 -583 9 -681 8 -749 -4 -187 -36 -293 -128 -330 -286 -13 -55 -16
-175 -16 -795 0 -775 2 -812 48 -902 27 -52 101 -119 160 -144 112 -49 161
-51 745 -39 298 6 687 14 865 17 l322 6 0 369 c0 344 -1 368 -17 368 -10 0
-229 -11 -488 -25 -258 -14 -487 -25 -507 -25 l-38 0 0 265 0 265 880 0 879 0
3 -747 c3 -706 4 -752 22 -815 26 -86 16 -110 -57 -143 -105 -48 -150 -50
-1527 -50 -1200 0 -1291 1 -1374 18 -373 76 -564 282 -620 669 -32 225 -41
412 -41 898 0 719 29 978 135 1195 120 246 341 381 673 414 51 5 580 8 1177 7
966 -2 1098 -4 1200 -19z"/>
</g>
</svg>
