<?xml version="1.0" standalone="yes"?>
<svg xmlns="http://www.w3.org/2000/svg" width="512" height="512">
<path fill="#FF8080" stroke="none" d="M233 0.460938C195.138 4.21848 158.991 15.4424 126 34.4815C97.734 50.7936 72.6132 73.1965 52.6913 99C-34.5823 212.04 -10.24 382.571 107 465.225C132.121 482.935 160.242 496.281 190 504.081C218.521 511.556 249.594 514.457 279 511.539C316.862 507.782 353.009 496.558 386 477.518C414.266 461.206 439.387 438.804 459.309 413C546.582 299.96 522.24 129.429 405 46.775C379.879 29.0648 351.758 15.7188 322 7.91943C293.479 0.444305 262.406 -2.4574 233 0.460938z"/>
<path fill="#fff" stroke="none" d="M385 245L256 245L256 284L333 280L333 334C299.675 334.069 266.366 336 233 336C218.972 336 200.66 338.822 188.067 331.258C176.716 324.439 176.007 310.804 176 299L176 218C176 204.58 175.462 190.66 188.023 182.283C201.831 173.074 224.229 177 240 177C282.061 177 324.065 177.762 366 181C367.315 173.365 376.763 152.486 370.966 146.201C366.669 141.541 356.886 141.12 351 140.359C332.187 137.925 312.936 139 294 139L201 139C179.96 139 156.974 140.233 141.174 156.159C128.212 169.224 124.965 187.415 123.362 205C120.049 241.365 120.312 282.71 124.151 319C125.881 335.353 131.2 351.88 145.005 361.965C161.059 373.692 181.978 374 201 374L279 374C305.364 374 331.68 374.193 358 373.038C365.115 372.725 381.867 373.239 386.61 366.885C388.942 363.761 386.366 359.275 385.674 355.999C384.315 349.563 385 342.542 385 336L385 245z"/>
</svg>
